<mxfile host="app.diagrams.net" modified="2023-06-29T21:53:44.210Z" agent="Mozilla/5.0 (Windows NT 10.0; Win64; x64) AppleWebKit/537.36 (KHTML, like Gecko) Chrome/114.0.0.0 Safari/537.36" etag="HKIyFM2MHG_GMpQWdJ8_" version="21.5.2" type="device">
  <diagram name="Page-1" id="RPb3wnmH3mTpkXsklkhz">
    <mxGraphModel dx="2537" dy="932" grid="1" gridSize="10" guides="1" tooltips="1" connect="1" arrows="1" fold="1" page="1" pageScale="1" pageWidth="850" pageHeight="1100" math="0" shadow="0">
      <root>
        <mxCell id="0" />
        <mxCell id="1" parent="0" />
        <mxCell id="6phgiGDDSsjCHhmaexQ0-15" style="edgeStyle=orthogonalEdgeStyle;rounded=0;orthogonalLoop=1;jettySize=auto;html=1;exitX=0.5;exitY=1;exitDx=0;exitDy=0;" parent="1" source="6phgiGDDSsjCHhmaexQ0-1" target="6phgiGDDSsjCHhmaexQ0-2" edge="1">
          <mxGeometry relative="1" as="geometry" />
        </mxCell>
        <mxCell id="6phgiGDDSsjCHhmaexQ0-1" value="Root" style="ellipse;whiteSpace=wrap;html=1;" parent="1" vertex="1">
          <mxGeometry x="365" y="30" width="120" height="80" as="geometry" />
        </mxCell>
        <mxCell id="6phgiGDDSsjCHhmaexQ0-4" style="edgeStyle=orthogonalEdgeStyle;rounded=0;orthogonalLoop=1;jettySize=auto;html=1;exitX=0.5;exitY=1;exitDx=0;exitDy=0;entryX=0.5;entryY=0;entryDx=0;entryDy=0;" parent="1" source="6phgiGDDSsjCHhmaexQ0-2" target="6phgiGDDSsjCHhmaexQ0-3" edge="1">
          <mxGeometry relative="1" as="geometry" />
        </mxCell>
        <mxCell id="6phgiGDDSsjCHhmaexQ0-9" style="edgeStyle=orthogonalEdgeStyle;rounded=0;orthogonalLoop=1;jettySize=auto;html=1;exitX=0.5;exitY=1;exitDx=0;exitDy=0;" parent="1" source="6phgiGDDSsjCHhmaexQ0-2" target="6phgiGDDSsjCHhmaexQ0-10" edge="1">
          <mxGeometry relative="1" as="geometry">
            <mxPoint x="-10" y="270" as="targetPoint" />
          </mxGeometry>
        </mxCell>
        <mxCell id="6phgiGDDSsjCHhmaexQ0-38" style="edgeStyle=orthogonalEdgeStyle;rounded=0;orthogonalLoop=1;jettySize=auto;html=1;exitX=0.5;exitY=1;exitDx=0;exitDy=0;entryX=0.5;entryY=0;entryDx=0;entryDy=0;" parent="1" source="6phgiGDDSsjCHhmaexQ0-2" target="6phgiGDDSsjCHhmaexQ0-16" edge="1">
          <mxGeometry relative="1" as="geometry" />
        </mxCell>
        <mxCell id="6phgiGDDSsjCHhmaexQ0-40" style="edgeStyle=orthogonalEdgeStyle;rounded=0;orthogonalLoop=1;jettySize=auto;html=1;exitX=0.5;exitY=1;exitDx=0;exitDy=0;entryX=0.5;entryY=0;entryDx=0;entryDy=0;" parent="1" source="6phgiGDDSsjCHhmaexQ0-2" target="6phgiGDDSsjCHhmaexQ0-39" edge="1">
          <mxGeometry relative="1" as="geometry" />
        </mxCell>
        <mxCell id="6phgiGDDSsjCHhmaexQ0-2" value="Selector" style="rounded=0;whiteSpace=wrap;html=1;" parent="1" vertex="1">
          <mxGeometry x="365" y="130" width="120" height="60" as="geometry" />
        </mxCell>
        <mxCell id="6phgiGDDSsjCHhmaexQ0-7" style="edgeStyle=orthogonalEdgeStyle;rounded=0;orthogonalLoop=1;jettySize=auto;html=1;exitX=0.5;exitY=1;exitDx=0;exitDy=0;" parent="1" source="6phgiGDDSsjCHhmaexQ0-3" target="6phgiGDDSsjCHhmaexQ0-5" edge="1">
          <mxGeometry relative="1" as="geometry" />
        </mxCell>
        <mxCell id="6phgiGDDSsjCHhmaexQ0-8" style="edgeStyle=orthogonalEdgeStyle;rounded=0;orthogonalLoop=1;jettySize=auto;html=1;exitX=0.5;exitY=1;exitDx=0;exitDy=0;entryX=0.5;entryY=0;entryDx=0;entryDy=0;" parent="1" source="6phgiGDDSsjCHhmaexQ0-3" target="6phgiGDDSsjCHhmaexQ0-6" edge="1">
          <mxGeometry relative="1" as="geometry" />
        </mxCell>
        <mxCell id="6phgiGDDSsjCHhmaexQ0-3" value="Sequence" style="shape=parallelogram;perimeter=parallelogramPerimeter;whiteSpace=wrap;html=1;fixedSize=1;" parent="1" vertex="1">
          <mxGeometry x="-720" y="270" width="120" height="60" as="geometry" />
        </mxCell>
        <mxCell id="6phgiGDDSsjCHhmaexQ0-5" value="Has Wait" style="shape=trapezoid;perimeter=trapezoidPerimeter;whiteSpace=wrap;html=1;fixedSize=1;" parent="1" vertex="1">
          <mxGeometry x="-800" y="380" width="120" height="60" as="geometry" />
        </mxCell>
        <mxCell id="6phgiGDDSsjCHhmaexQ0-6" value="Wait" style="shape=step;perimeter=stepPerimeter;whiteSpace=wrap;html=1;fixedSize=1;" parent="1" vertex="1">
          <mxGeometry x="-660" y="380" width="120" height="60" as="geometry" />
        </mxCell>
        <mxCell id="6phgiGDDSsjCHhmaexQ0-12" style="edgeStyle=orthogonalEdgeStyle;rounded=0;orthogonalLoop=1;jettySize=auto;html=1;exitX=0.5;exitY=1;exitDx=0;exitDy=0;entryX=0.5;entryY=0;entryDx=0;entryDy=0;" parent="1" source="6phgiGDDSsjCHhmaexQ0-10" target="6phgiGDDSsjCHhmaexQ0-11" edge="1">
          <mxGeometry relative="1" as="geometry" />
        </mxCell>
        <mxCell id="6phgiGDDSsjCHhmaexQ0-14" style="edgeStyle=orthogonalEdgeStyle;rounded=0;orthogonalLoop=1;jettySize=auto;html=1;exitX=0.5;exitY=1;exitDx=0;exitDy=0;" parent="1" source="6phgiGDDSsjCHhmaexQ0-10" target="6phgiGDDSsjCHhmaexQ0-13" edge="1">
          <mxGeometry relative="1" as="geometry" />
        </mxCell>
        <mxCell id="6phgiGDDSsjCHhmaexQ0-10" value="Sequence" style="shape=parallelogram;perimeter=parallelogramPerimeter;whiteSpace=wrap;html=1;fixedSize=1;" parent="1" vertex="1">
          <mxGeometry x="-440" y="270" width="120" height="60" as="geometry" />
        </mxCell>
        <mxCell id="6phgiGDDSsjCHhmaexQ0-11" value="Has Move To Location" style="shape=trapezoid;perimeter=trapezoidPerimeter;whiteSpace=wrap;html=1;fixedSize=1;" parent="1" vertex="1">
          <mxGeometry x="-530" y="380" width="120" height="60" as="geometry" />
        </mxCell>
        <mxCell id="6phgiGDDSsjCHhmaexQ0-13" value="Move To&lt;br&gt;&amp;nbsp;Location" style="shape=step;perimeter=stepPerimeter;whiteSpace=wrap;html=1;fixedSize=1;" parent="1" vertex="1">
          <mxGeometry x="-360" y="380" width="120" height="60" as="geometry" />
        </mxCell>
        <mxCell id="6phgiGDDSsjCHhmaexQ0-19" style="edgeStyle=orthogonalEdgeStyle;rounded=0;orthogonalLoop=1;jettySize=auto;html=1;exitX=0.5;exitY=1;exitDx=0;exitDy=0;entryX=0.5;entryY=0;entryDx=0;entryDy=0;" parent="1" source="6phgiGDDSsjCHhmaexQ0-16" target="6phgiGDDSsjCHhmaexQ0-18" edge="1">
          <mxGeometry relative="1" as="geometry" />
        </mxCell>
        <mxCell id="6phgiGDDSsjCHhmaexQ0-22" style="edgeStyle=orthogonalEdgeStyle;rounded=0;orthogonalLoop=1;jettySize=auto;html=1;exitX=0.5;exitY=1;exitDx=0;exitDy=0;entryX=0.5;entryY=0;entryDx=0;entryDy=0;" parent="1" source="6phgiGDDSsjCHhmaexQ0-16" target="6phgiGDDSsjCHhmaexQ0-21" edge="1">
          <mxGeometry relative="1" as="geometry" />
        </mxCell>
        <mxCell id="6phgiGDDSsjCHhmaexQ0-16" value="Sequence" style="shape=parallelogram;perimeter=parallelogramPerimeter;whiteSpace=wrap;html=1;fixedSize=1;" parent="1" vertex="1">
          <mxGeometry x="1037.5" y="270" width="120" height="60" as="geometry" />
        </mxCell>
        <mxCell id="6phgiGDDSsjCHhmaexQ0-18" value="Has Work&lt;br&gt;Station" style="shape=trapezoid;perimeter=trapezoidPerimeter;whiteSpace=wrap;html=1;fixedSize=1;" parent="1" vertex="1">
          <mxGeometry x="957.5" y="380" width="120" height="60" as="geometry" />
        </mxCell>
        <mxCell id="6phgiGDDSsjCHhmaexQ0-24" style="edgeStyle=orthogonalEdgeStyle;rounded=0;orthogonalLoop=1;jettySize=auto;html=1;exitX=0.5;exitY=1;exitDx=0;exitDy=0;" parent="1" source="6phgiGDDSsjCHhmaexQ0-21" target="6phgiGDDSsjCHhmaexQ0-23" edge="1">
          <mxGeometry relative="1" as="geometry" />
        </mxCell>
        <mxCell id="6phgiGDDSsjCHhmaexQ0-30" style="edgeStyle=orthogonalEdgeStyle;rounded=0;orthogonalLoop=1;jettySize=auto;html=1;exitX=0.5;exitY=1;exitDx=0;exitDy=0;entryX=0.5;entryY=0;entryDx=0;entryDy=0;" parent="1" source="6phgiGDDSsjCHhmaexQ0-21" target="6phgiGDDSsjCHhmaexQ0-29" edge="1">
          <mxGeometry relative="1" as="geometry" />
        </mxCell>
        <mxCell id="6phgiGDDSsjCHhmaexQ0-21" value="Selector" style="rounded=0;whiteSpace=wrap;html=1;" parent="1" vertex="1">
          <mxGeometry x="1097.5" y="380" width="120" height="60" as="geometry" />
        </mxCell>
        <mxCell id="6phgiGDDSsjCHhmaexQ0-26" style="edgeStyle=orthogonalEdgeStyle;rounded=0;orthogonalLoop=1;jettySize=auto;html=1;exitX=0.5;exitY=1;exitDx=0;exitDy=0;" parent="1" source="6phgiGDDSsjCHhmaexQ0-23" target="6phgiGDDSsjCHhmaexQ0-25" edge="1">
          <mxGeometry relative="1" as="geometry" />
        </mxCell>
        <mxCell id="6phgiGDDSsjCHhmaexQ0-28" style="edgeStyle=orthogonalEdgeStyle;rounded=0;orthogonalLoop=1;jettySize=auto;html=1;exitX=0.5;exitY=1;exitDx=0;exitDy=0;" parent="1" source="6phgiGDDSsjCHhmaexQ0-23" target="6phgiGDDSsjCHhmaexQ0-27" edge="1">
          <mxGeometry relative="1" as="geometry" />
        </mxCell>
        <mxCell id="6phgiGDDSsjCHhmaexQ0-23" value="Sequence" style="shape=parallelogram;perimeter=parallelogramPerimeter;whiteSpace=wrap;html=1;fixedSize=1;" parent="1" vertex="1">
          <mxGeometry x="960" y="500" width="120" height="60" as="geometry" />
        </mxCell>
        <mxCell id="6phgiGDDSsjCHhmaexQ0-25" value="Is At Location" style="shape=trapezoid;perimeter=trapezoidPerimeter;whiteSpace=wrap;html=1;fixedSize=1;" parent="1" vertex="1">
          <mxGeometry x="890" y="600" width="120" height="60" as="geometry" />
        </mxCell>
        <mxCell id="6phgiGDDSsjCHhmaexQ0-27" value="Perform Work" style="shape=step;perimeter=stepPerimeter;whiteSpace=wrap;html=1;fixedSize=1;" parent="1" vertex="1">
          <mxGeometry x="1045" y="600" width="120" height="60" as="geometry" />
        </mxCell>
        <mxCell id="6phgiGDDSsjCHhmaexQ0-33" style="edgeStyle=orthogonalEdgeStyle;rounded=0;orthogonalLoop=1;jettySize=auto;html=1;exitX=0.5;exitY=1;exitDx=0;exitDy=0;entryX=0.5;entryY=0;entryDx=0;entryDy=0;" parent="1" source="6phgiGDDSsjCHhmaexQ0-29" target="6phgiGDDSsjCHhmaexQ0-32" edge="1">
          <mxGeometry relative="1" as="geometry" />
        </mxCell>
        <mxCell id="6phgiGDDSsjCHhmaexQ0-29" value="Sequence" style="shape=parallelogram;perimeter=parallelogramPerimeter;whiteSpace=wrap;html=1;fixedSize=1;" parent="1" vertex="1">
          <mxGeometry x="1207.5" y="500" width="120" height="60" as="geometry" />
        </mxCell>
        <mxCell id="6phgiGDDSsjCHhmaexQ0-32" value="Set Work &lt;br&gt;Location" style="shape=step;perimeter=stepPerimeter;whiteSpace=wrap;html=1;fixedSize=1;" parent="1" vertex="1">
          <mxGeometry x="1207.5" y="600" width="120" height="60" as="geometry" />
        </mxCell>
        <mxCell id="6phgiGDDSsjCHhmaexQ0-42" style="edgeStyle=orthogonalEdgeStyle;rounded=0;orthogonalLoop=1;jettySize=auto;html=1;exitX=0.5;exitY=1;exitDx=0;exitDy=0;" parent="1" source="6phgiGDDSsjCHhmaexQ0-39" target="6phgiGDDSsjCHhmaexQ0-41" edge="1">
          <mxGeometry relative="1" as="geometry" />
        </mxCell>
        <mxCell id="6phgiGDDSsjCHhmaexQ0-45" style="edgeStyle=orthogonalEdgeStyle;rounded=0;orthogonalLoop=1;jettySize=auto;html=1;exitX=0.5;exitY=1;exitDx=0;exitDy=0;entryX=0.5;entryY=0;entryDx=0;entryDy=0;" parent="1" source="6phgiGDDSsjCHhmaexQ0-39" target="6phgiGDDSsjCHhmaexQ0-44" edge="1">
          <mxGeometry relative="1" as="geometry" />
        </mxCell>
        <mxCell id="6phgiGDDSsjCHhmaexQ0-39" value="Sequence" style="shape=parallelogram;perimeter=parallelogramPerimeter;whiteSpace=wrap;html=1;fixedSize=1;" parent="1" vertex="1">
          <mxGeometry x="300" y="270" width="120" height="60" as="geometry" />
        </mxCell>
        <mxCell id="6phgiGDDSsjCHhmaexQ0-41" value="Is In Combat" style="shape=trapezoid;perimeter=trapezoidPerimeter;whiteSpace=wrap;html=1;fixedSize=1;" parent="1" vertex="1">
          <mxGeometry x="240" y="380" width="120" height="60" as="geometry" />
        </mxCell>
        <mxCell id="6phgiGDDSsjCHhmaexQ0-48" style="edgeStyle=orthogonalEdgeStyle;rounded=0;orthogonalLoop=1;jettySize=auto;html=1;exitX=0.5;exitY=1;exitDx=0;exitDy=0;" parent="1" source="6phgiGDDSsjCHhmaexQ0-44" target="6phgiGDDSsjCHhmaexQ0-47" edge="1">
          <mxGeometry relative="1" as="geometry" />
        </mxCell>
        <mxCell id="6phgiGDDSsjCHhmaexQ0-66" style="edgeStyle=orthogonalEdgeStyle;rounded=0;orthogonalLoop=1;jettySize=auto;html=1;exitX=0.5;exitY=1;exitDx=0;exitDy=0;" parent="1" source="6phgiGDDSsjCHhmaexQ0-44" target="6phgiGDDSsjCHhmaexQ0-65" edge="1">
          <mxGeometry relative="1" as="geometry" />
        </mxCell>
        <mxCell id="6phgiGDDSsjCHhmaexQ0-44" value="Selector" style="rounded=0;whiteSpace=wrap;html=1;" parent="1" vertex="1">
          <mxGeometry x="390" y="380" width="120" height="60" as="geometry" />
        </mxCell>
        <mxCell id="6phgiGDDSsjCHhmaexQ0-61" style="edgeStyle=orthogonalEdgeStyle;rounded=0;orthogonalLoop=1;jettySize=auto;html=1;exitX=0.5;exitY=1;exitDx=0;exitDy=0;entryX=0.5;entryY=0;entryDx=0;entryDy=0;" parent="1" source="6phgiGDDSsjCHhmaexQ0-47" target="6phgiGDDSsjCHhmaexQ0-49" edge="1">
          <mxGeometry relative="1" as="geometry" />
        </mxCell>
        <mxCell id="6phgiGDDSsjCHhmaexQ0-62" style="edgeStyle=orthogonalEdgeStyle;rounded=0;orthogonalLoop=1;jettySize=auto;html=1;exitX=0.5;exitY=1;exitDx=0;exitDy=0;entryX=0.5;entryY=0;entryDx=0;entryDy=0;" parent="1" source="6phgiGDDSsjCHhmaexQ0-47" target="6phgiGDDSsjCHhmaexQ0-53" edge="1">
          <mxGeometry relative="1" as="geometry" />
        </mxCell>
        <mxCell id="6phgiGDDSsjCHhmaexQ0-63" style="edgeStyle=orthogonalEdgeStyle;rounded=0;orthogonalLoop=1;jettySize=auto;html=1;exitX=0.5;exitY=1;exitDx=0;exitDy=0;entryX=0.5;entryY=0;entryDx=0;entryDy=0;" parent="1" source="6phgiGDDSsjCHhmaexQ0-47" target="6phgiGDDSsjCHhmaexQ0-56" edge="1">
          <mxGeometry relative="1" as="geometry" />
        </mxCell>
        <mxCell id="6phgiGDDSsjCHhmaexQ0-64" style="edgeStyle=orthogonalEdgeStyle;rounded=0;orthogonalLoop=1;jettySize=auto;html=1;exitX=0.5;exitY=1;exitDx=0;exitDy=0;" parent="1" source="6phgiGDDSsjCHhmaexQ0-47" target="6phgiGDDSsjCHhmaexQ0-58" edge="1">
          <mxGeometry relative="1" as="geometry" />
        </mxCell>
        <mxCell id="zXRzHBMwWuiLh6VrqMNC-2" style="edgeStyle=orthogonalEdgeStyle;rounded=0;orthogonalLoop=1;jettySize=auto;html=1;exitX=0.5;exitY=1;exitDx=0;exitDy=0;" edge="1" parent="1" source="6phgiGDDSsjCHhmaexQ0-47" target="zXRzHBMwWuiLh6VrqMNC-1">
          <mxGeometry relative="1" as="geometry" />
        </mxCell>
        <mxCell id="6phgiGDDSsjCHhmaexQ0-47" value="Sequence" style="shape=parallelogram;perimeter=parallelogramPerimeter;whiteSpace=wrap;html=1;fixedSize=1;" parent="1" vertex="1">
          <mxGeometry x="-175" y="480" width="120" height="60" as="geometry" />
        </mxCell>
        <mxCell id="6phgiGDDSsjCHhmaexQ0-49" value="Is In Combat&lt;br&gt;Mode" style="shape=trapezoid;perimeter=trapezoidPerimeter;whiteSpace=wrap;html=1;fixedSize=1;" parent="1" vertex="1">
          <mxGeometry x="-400" y="630" width="120" height="60" as="geometry" />
        </mxCell>
        <mxCell id="6phgiGDDSsjCHhmaexQ0-53" value="Is Combat Fit" style="shape=trapezoid;perimeter=trapezoidPerimeter;whiteSpace=wrap;html=1;fixedSize=1;" parent="1" vertex="1">
          <mxGeometry x="-240" y="630" width="120" height="60" as="geometry" />
        </mxCell>
        <mxCell id="6phgiGDDSsjCHhmaexQ0-56" value="Select Target" style="shape=step;perimeter=stepPerimeter;whiteSpace=wrap;html=1;fixedSize=1;" parent="1" vertex="1">
          <mxGeometry x="30" y="630" width="120" height="60" as="geometry" />
        </mxCell>
        <mxCell id="6phgiGDDSsjCHhmaexQ0-58" value="Attack Target" style="shape=step;perimeter=stepPerimeter;whiteSpace=wrap;html=1;fixedSize=1;" parent="1" vertex="1">
          <mxGeometry x="180" y="630" width="120" height="60" as="geometry" />
        </mxCell>
        <mxCell id="6phgiGDDSsjCHhmaexQ0-68" style="edgeStyle=orthogonalEdgeStyle;rounded=0;orthogonalLoop=1;jettySize=auto;html=1;exitX=0.5;exitY=1;exitDx=0;exitDy=0;" parent="1" source="6phgiGDDSsjCHhmaexQ0-65" target="6phgiGDDSsjCHhmaexQ0-67" edge="1">
          <mxGeometry relative="1" as="geometry" />
        </mxCell>
        <mxCell id="6phgiGDDSsjCHhmaexQ0-70" style="edgeStyle=orthogonalEdgeStyle;rounded=0;orthogonalLoop=1;jettySize=auto;html=1;exitX=0.5;exitY=1;exitDx=0;exitDy=0;" parent="1" source="6phgiGDDSsjCHhmaexQ0-65" target="6phgiGDDSsjCHhmaexQ0-69" edge="1">
          <mxGeometry relative="1" as="geometry" />
        </mxCell>
        <mxCell id="6phgiGDDSsjCHhmaexQ0-65" value="Sequence" style="shape=parallelogram;perimeter=parallelogramPerimeter;whiteSpace=wrap;html=1;fixedSize=1;" parent="1" vertex="1">
          <mxGeometry x="520" y="480" width="120" height="60" as="geometry" />
        </mxCell>
        <mxCell id="6phgiGDDSsjCHhmaexQ0-67" value="Not Safe" style="shape=trapezoid;perimeter=trapezoidPerimeter;whiteSpace=wrap;html=1;fixedSize=1;" parent="1" vertex="1">
          <mxGeometry x="420" y="630" width="120" height="60" as="geometry" />
        </mxCell>
        <mxCell id="6phgiGDDSsjCHhmaexQ0-69" value="Move To Safe Location" style="shape=step;perimeter=stepPerimeter;whiteSpace=wrap;html=1;fixedSize=1;" parent="1" vertex="1">
          <mxGeometry x="580" y="630" width="120" height="60" as="geometry" />
        </mxCell>
        <mxCell id="zXRzHBMwWuiLh6VrqMNC-1" value="Is In Range" style="shape=trapezoid;perimeter=trapezoidPerimeter;whiteSpace=wrap;html=1;fixedSize=1;" vertex="1" parent="1">
          <mxGeometry x="-100" y="630" width="120" height="60" as="geometry" />
        </mxCell>
      </root>
    </mxGraphModel>
  </diagram>
</mxfile>
